<svg width="24px" height="24px" viewBox="0 0 24 24" version="1.1" xmlns="http://www.w3.org/2000/svg" xmlns:xlink="http://www.w3.org/1999/xlink">
    <title>icon-phone-grey-24px</title>
    <defs>
        <path d="M8,2 L16,2 C17.1045695,2 18,2.8954305 18,4 L18,20 C18,21.1045695 17.1045695,22 16,22 L8,22 C6.8954305,22 6,21.1045695 6,20 L6,4 C6,2.8954305 6.8954305,2 8,2 Z M8,4 L8,16 L16,16 L16,4 L8,4 Z M12,20.5 C12.8284271,20.5 13.5,19.8284271 13.5,19 C13.5,18.1715729 12.8284271,17.5 12,17.5 C11.1715729,17.5 10.5,18.1715729 10.5,19 C10.5,19.8284271 11.1715729,20.5 12,20.5 Z" id="path-1"></path>
    </defs>
    <g id="icon-phone-grey-24px" stroke="none" stroke-width="1" fill="none" fill-rule="evenodd">
        <mask id="mask-2" fill="white">
            <use xlink:href="#path-1"></use>
        </mask>
        <use id="phone" fill="#9C9FA6" xlink:href="#path-1"></use>
    </g>
</svg>