<svg width="24px" height="24px" viewBox="0 0 24 24" version="1.1" xmlns="http://www.w3.org/2000/svg" xmlns:xlink="http://www.w3.org/1999/xlink">
    <title>icon-alert-grey-24px</title>
    <defs>
        <path d="M12,22 C6.4771525,22 2,17.5228475 2,12 C2,6.4771525 6.4771525,2 12,2 C17.5228475,2 22,6.4771525 22,12 C22,17.5228475 17.5228475,22 12,22 Z M12,18 C12.8284271,18 13.5,17.3284271 13.5,16.5 C13.5,15.6715729 12.8284271,15 12,15 C11.1715729,15 10.5,15.6715729 10.5,16.5 C10.5,17.3284271 11.1715729,18 12,18 Z M11.9070518,6.5 C11.8545336,6.5 11.8020565,6.50294063 11.7498671,6.50880808 C10.9777081,6.59561882 10.4221237,7.29195132 10.5089344,8.06411023 L11.0321465,12.7179449 C11.082218,13.1633182 11.4588726,13.5 11.9070518,13.5 C12.355231,13.5 12.7318856,13.1633182 12.7819572,12.7179449 L13.3051692,8.06411023 C13.3110367,8.01192078 13.3139773,7.95944373 13.3139773,7.90692548 C13.3139773,7.12990199 12.6840753,6.5 11.9070518,6.5 Z" id="path-1"></path>
    </defs>
    <g id="icon-alert-grey-24px" stroke="none" stroke-width="1" fill="none" fill-rule="evenodd">
        <mask id="mask-2" fill="white">
            <use xlink:href="#path-1"></use>
        </mask>
        <use id="alert" fill="#9C9FA6" fill-rule="nonzero" xlink:href="#path-1"></use>
    </g>
</svg>