<?xml version="1.0" encoding="UTF-8"?>
<svg width="20px" height="20px" viewBox="0 0 20 20" version="1.1" xmlns="http://www.w3.org/2000/svg" xmlns:xlink="http://www.w3.org/1999/xlink">
    <title>icon-lock</title>
    <desc></desc>
    <defs>
        <path d="M14.5,7 L13.75,7 L13.75,5.5 C13.75,3.43 12.07,1.75 10,1.75 C7.93,1.75 6.25,3.43 6.25,5.5 L6.25,7 L5.5,7 C4.675,7 4,7.675 4,8.5 L4,16 C4,16.825 4.675,17.5 5.5,17.5 L14.5,17.5 C15.325,17.5 16,16.825 16,16 L16,8.5 C16,7.675 15.325,7 14.5,7 Z M10,13.75 C9.175,13.75 8.5,13.075 8.5,12.25 C8.5,11.425 9.175,10.75 10,10.75 C10.825,10.75 11.5,11.425 11.5,12.25 C11.5,13.075 10.825,13.75 10,13.75 Z M12.325,7 L7.675,7 L7.675,5.5 C7.675,4.2175 8.7175,3.175 10,3.175 C11.2825,3.175 12.325,4.2175 12.325,5.5 L12.325,7 Z" id="path-1"></path>
    </defs>
    <g id="icon-lock" stroke="none" stroke-width="1" fill="none" fill-rule="evenodd">
        <mask id="mask-2" fill="white">
            <use xlink:href="#path-1"></use>
        </mask>
        <use id="Icon" fill="#C4C7CE" fill-rule="nonzero" xlink:href="#path-1"></use>
    </g>
</svg>