<svg width="72px" height="72px" viewBox="0 0 72 72" version="1.1" xmlns="http://www.w3.org/2000/svg" xmlns:xlink="http://www.w3.org/1999/xlink">
    <title>icon-document-grey-72px</title>
    <defs>
        <path d="M43.4511147,10.8 L16.5,10.8 C15.0088312,10.8 13.8,12.0088312 13.8,13.5 L13.8,58.5 C13.8,59.9911688 15.0088312,61.2 16.5,61.2 L55.5,61.2 C56.9911688,61.2 58.2,59.9911688 58.2,58.5 L58.2,25.5488853 L43.4511147,10.8 Z M44.1966991,9 L60,24.8033009 L60,58.5 C60,60.9852814 57.9852814,63 55.5,63 L16.5,63 C14.0147186,63 12,60.9852814 12,58.5 L12,13.5 C12,11.0147186 14.0147186,9 16.5,9 L44.1966991,9 Z M22.5,32.4 L49.5,32.4 C49.9970563,32.4 50.4,31.9970563 50.4,31.5 C50.4,31.0029437 49.9970563,30.6 49.5,30.6 L22.5,30.6 C22.0029437,30.6 21.6,31.0029437 21.6,31.5 C21.6,31.9970563 22.0029437,32.4 22.5,32.4 Z M22.5,41.4 L49.5,41.4 C49.9970563,41.4 50.4,40.9970563 50.4,40.5 C50.4,40.0029437 49.9970563,39.6 49.5,39.6 L22.5,39.6 C22.0029437,39.6 21.6,40.0029437 21.6,40.5 C21.6,40.9970563 22.0029437,41.4 22.5,41.4 Z M22.5,50.4 L40.5,50.4 C40.9970563,50.4 41.4,49.9970563 41.4,49.5 C41.4,49.0029437 40.9970563,48.6 40.5,48.6 L22.5,48.6 C22.0029437,48.6 21.6,49.0029437 21.6,49.5 C21.6,49.9970563 22.0029437,50.4 22.5,50.4 Z M22.5,23.4 L43.5,23.4 C43.9970563,23.4 44.4,22.9970563 44.4,22.5 C44.4,22.0029437 43.9970563,21.6 43.5,21.6 L22.5,21.6 C22.0029437,21.6 21.6,22.0029437 21.6,22.5 C21.6,22.9970563 22.0029437,23.4 22.5,23.4 Z" id="path-1"></path>
    </defs>
    <g id="icon-document-grey-72px" stroke="none" stroke-width="1" fill="none" fill-rule="evenodd">
        <mask id="mask-2" fill="white">
            <use xlink:href="#path-1"></use>
        </mask>
        <use id="document" fill="#9C9FA6" fill-rule="nonzero" xlink:href="#path-1"></use>
    </g>
</svg>