<svg width="72px" height="72px" viewBox="0 0 72 72" version="1.1" xmlns="http://www.w3.org/2000/svg" xmlns:xlink="http://www.w3.org/1999/xlink">
    <title>icon-benefit-grey-72px</title>
    <defs>
        <path d="M59.2322895,38.8848373 C65.6184834,32.9116743 66.2612943,23.0031402 60.7003937,16.2549158 C60.611365,16.1468783 60.5208244,16.0400956 60.4287988,15.9345992 C54.9966193,9.70725496 45.5447078,9.06264657 39.3173635,14.4948261 L36,17.388598 L32.6729891,14.4864106 C32.5643018,14.3916015 32.4542469,14.2983717 32.3428589,14.2067506 C25.9725332,8.96690287 16.560628,9.88333628 11.3207802,16.253662 C5.76716415,23.0054503 6.4110057,32.9094827 12.7920188,38.8854404 C23.9628624,49.3471112 31.6998157,56.5692848 36.000103,60.5494 C40.3006744,56.5702542 48.0434622,49.3499226 59.2322895,38.8848373 Z M36.9,32.1 L36.9,24 L35.1,24 L35.1,32.1 L27,32.1 L27,33.9 L35.1,33.9 L35.1,42 L36.9,42 L36.9,33.9 L45,33.9 L45,32.1 L36.9,32.1 Z M36,15 L38.1341226,13.1383818 C45.1106103,7.05271643 55.6995776,7.77487058 61.785243,14.7513583 C61.8883392,14.8695458 61.9897717,14.9891744 62.0895105,15.1102087 C68.2547404,22.5917944 67.5420722,33.5771357 60.4618606,40.1994304 C48.1206079,51.7423971 39.9666724,59.3426062 36,63 C32.0333138,59.3425934 23.8871849,51.7423442 11.5616132,40.1992524 C4.48777708,33.5744509 3.77402313,22.5950822 9.93063107,15.1102087 C15.8019907,7.97212484 26.3482283,6.94524193 33.4863122,12.8166015 C33.6111247,12.9192648 33.7344436,13.0237308 33.85623,13.1299664 L36,15 Z" id="path-1"></path>
    </defs>
    <g id="icon-benefit-grey-72px" stroke="none" stroke-width="1" fill="none" fill-rule="evenodd">
        <mask id="mask-2" fill="white">
            <use xlink:href="#path-1"></use>
        </mask>
        <use id="benefit" fill="#9C9FA6" fill-rule="nonzero" xlink:href="#path-1"></use>
    </g>
</svg>