<svg width="72px" height="72px" viewBox="0 0 72 72" version="1.1" xmlns="http://www.w3.org/2000/svg" xmlns:xlink="http://www.w3.org/1999/xlink">
    <title>icon-notifications-grey-72px</title>
    <defs>
        <path d="M36,61.2 C38.3195959,61.2 40.2,59.3195959 40.2,57 C36,57 38.3195959,57 36,57 C33.6804041,57 36,57 31.8,57 C31.8,59.3195959 33.6804041,61.2 36,61.2 Z M36,63 C32.6862915,63 30,60.3137085 30,57 C36,57 32.6862915,57 36,57 C39.3137085,57 36,57 42,57 C42,60.3137085 39.3137085,63 36,63 Z M53.9770176,29.9770176 C53.9770176,30.062308 53.9764106,30.1475974 53.9751967,30.2328793 L53.8918762,36.0789474 C53.809288,41.8810608 55.5412391,47.5640487 58.8457486,52.333908 L60,54 L12,54 L13.1533412,52.3346838 C16.4571542,47.5642888 18.1884743,41.8810986 18.1054688,36.0789474 L18.0218131,30.2372223 C17.9065543,22.1805441 23.1085891,15.2858347 30.3792305,12.8960813 C31.2315253,10.6201394 33.4265607,9 36,9 C38.5734807,9 40.7685453,10.6201915 41.6208106,12.8961912 C48.796429,15.2561028 53.9770176,22.0115645 53.9770176,29.9770176 Z M52.092059,36.0532957 L52.175379,30.2072604 C52.1767445,30.0921429 52.1767445,30.0921429 52.1770176,29.9770176 C52.1770176,22.9377389 47.6396803,16.7705188 41.0584598,14.6060922 L40.2379967,14.336259 L39.9351177,13.5274117 C39.3259571,11.9006302 37.7665314,10.8 36,10.8 C34.2334982,10.8 32.6740933,11.9005932 32.064911,13.527335 L31.7619558,14.3363373 L30.9412822,14.6060807 C24.2775502,16.7963519 19.7197086,23.0871613 19.8216286,30.2114483 L19.9052846,36.0531992 C19.9870225,41.7667459 18.4162258,47.3719397 15.3966309,52.2 L56.6027167,52.2 C53.5822417,47.3722791 52.0107285,41.7670565 52.092059,36.0532957 Z" id="path-1"></path>
    </defs>
    <g id="icon-notifications-grey-72px" stroke="none" stroke-width="1" fill="none" fill-rule="evenodd">
        <mask id="mask-2" fill="white">
            <use xlink:href="#path-1"></use>
        </mask>
        <use id="notifications" fill="#9C9FA6" fill-rule="nonzero" xlink:href="#path-1"></use>
    </g>
</svg>