<svg width="72px" height="72px" viewBox="0 0 72 72" version="1.1" xmlns="http://www.w3.org/2000/svg" xmlns:xlink="http://www.w3.org/1999/xlink">
    <title>icon-employees-grey-72px</title>
    <defs>
        <path d="M18.6,64.2 L18.6,58.5 C18.6,58.0029437 19.0029437,57.6 19.5,57.6 C19.9970563,57.6 20.4,58.0029437 20.4,58.5 L20.4,64.2 L39.6,64.2 L39.6,58.5 C39.6,58.0029437 40.0029437,57.6 40.5,57.6 C40.9970563,57.6 41.4,58.0029437 41.4,58.5 L41.4,64.2 L50.533179,64.2 C50.5908536,64.2 50.6484532,64.1958421 50.7055299,64.1875585 C51.3614003,64.0923717 51.8159243,63.4835195 51.7207375,62.8276491 L50.4900791,54.347979 C50.0732175,51.4756557 47.9725027,49.1344897 45.1619616,48.4100137 C42.7529786,47.7890246 40.3443043,47.3028726 37.9357011,46.9514055 C36.1703738,49.5438928 32.5271314,51.1699325 28.5,51.1699325 C24.4728686,51.1699325 20.8296262,49.5438928 19.0642989,46.9514055 C16.6556774,47.3028753 14.2469848,47.789032 11.8379835,48.4100278 C9.02745135,49.1345309 6.92673765,51.4757068 6.50987765,54.3480192 L5.27926252,62.8276491 C5.27097895,62.8847258 5.26682101,62.9423254 5.26682101,63 C5.26682101,63.6627417 5.80407931,64.2 6.46682101,64.2 L18.6,64.2 Z M56.4,49.2 L65.5913335,49.2 C65.642296,49.2 65.6932067,49.1967535 65.7437564,49.1902803 C66.4011301,49.1060995 66.8657947,48.5049508 66.7816139,47.8475771 L65.679073,39.2377623 C65.3116751,36.368728 63.2630571,33.9980793 60.4775906,33.2186504 C58.6456743,32.7060306 56.8143739,32.2943296 54.9834776,31.9833923 C53.3797941,34.5401034 50.1129164,36.1699325 46.5,36.1699325 C45.7774971,36.1699325 45.0688327,36.1047539 44.3845404,35.9800182 C44.5460549,35.4061875 44.6773121,34.819683 44.7764812,34.2223358 C45.3306413,34.3189213 45.9075206,34.3699325 46.5,34.3699325 C50.0715052,34.3699325 53.0761374,32.5163071 53.9545168,30 C56.2913731,30.3366976 58.6274164,30.8317768 60.9626465,31.4852374 C64.4444759,32.4595224 67.0052468,35.4228402 67.4644935,39.0091279 L68.5670344,47.6189428 C68.7774865,49.262377 67.6158249,50.7652488 65.9723907,50.9757008 C65.8460165,50.9918838 65.7187397,51 65.5913335,51 L54.6,51 L54.6,49.2 L54.6,43.5 C54.6,43.0029437 55.0029437,42.6 55.5,42.6 C55.9970563,42.6 56.4,43.0029437 56.4,43.5 L56.4,49.2 Z M34.8793457,16.2784529 C34.2756467,16.0251419 33.6537012,15.8066977 33.0160287,15.6256398 C33.0053865,15.4184384 33,15.2098482 33,15 C33,8.372583 38.372583,3 45,3 C51.627417,3 57,8.372583 57,15 C57,21.627417 51.627417,27 45,27 C44.7901518,27 44.5815616,26.9946135 44.3743602,26.9839713 C44.1933023,26.3462988 43.9748581,25.7243533 43.7215471,25.1206543 C44.1403374,25.1730217 44.5670181,25.2 45,25.2 C50.6333044,25.2 55.2,20.6333044 55.2,15 C55.2,9.36669555 50.6333044,4.8 45,4.8 C39.3666956,4.8 34.8,9.36669555 34.8,15 C34.8,15.4329819 34.8269783,15.8596626 34.8793457,16.2784529 Z M28.5,45 C21.0441559,45 15,38.9558441 15,31.5 C15,24.0441559 21.0441559,18 28.5,18 C35.9558441,18 42,24.0441559 42,31.5 C42,38.9558441 35.9558441,45 28.5,45 Z M28.5,43.2 C34.9617316,43.2 40.2,37.9617316 40.2,31.5 C40.2,25.0382684 34.9617316,19.8 28.5,19.8 C22.0382684,19.8 16.8,25.0382684 16.8,31.5 C16.8,37.9617316 22.0382684,43.2 28.5,43.2 Z M28.5,49.3699325 C32.5477059,49.3699325 35.9529558,47.5163071 36.9484524,45 C39.8371572,45.367243 42.7247658,45.922908 45.611278,46.6669948 C49.1244494,47.5725885 51.7503408,50.4990554 52.2714168,54.0894526 L53.5020752,62.5691227 C53.7400422,64.2087988 52.6037324,65.7309293 50.9640563,65.9688962 C50.8213646,65.9896051 50.6773656,66 50.533179,66 L6.46682101,66 C4.80996676,66 3.46682101,64.6568542 3.46682101,63 C3.46682101,62.8558134 3.47721587,62.7118144 3.49792478,62.5691227 L4.7285388,54.0895006 C5.24961467,50.4991042 7.87550408,47.5726372 11.3886657,46.6670093 C14.2751967,45.9229152 17.162824,45.3672454 20.0515476,45 C21.0470442,47.5163071 24.4522941,49.3699325 28.5,49.3699325 Z" id="path-1"></path>
    </defs>
    <g id="icon-employees-grey-72px" stroke="none" stroke-width="1" fill="none" fill-rule="evenodd">
        <mask id="mask-2" fill="white">
            <use xlink:href="#path-1"></use>
        </mask>
        <use id="employees" fill="#9C9FA6" fill-rule="nonzero" xlink:href="#path-1"></use>
    </g>
</svg>