<svg width="72px" height="72px" viewBox="0 0 72 72" version="1.1" xmlns="http://www.w3.org/2000/svg" xmlns:xlink="http://www.w3.org/1999/xlink">
    <title>icon-time-off-grey-72px</title>
    <defs>
        <path d="M13.5,13.8 C12.0088312,13.8 10.8,15.0088312 10.8,16.5 L10.8,55.5 C10.8,56.9911688 12.0088312,58.2 13.5,58.2 L58.5,58.2 C59.9911688,58.2 61.2,56.9911688 61.2,55.5 L61.2,16.5 C61.2,15.0088312 59.9911688,13.8 58.5,13.8 L13.5,13.8 Z M20.4,12 L51.6,12 L51.6,9 C51.6,8.50294373 52.0029437,8.1 52.5,8.1 C52.9970563,8.1 53.4,8.50294373 53.4,9 L53.4,12 L58.5,12 C60.9852814,12 63,14.0147186 63,16.5 L63,55.5 C63,57.9852814 60.9852814,60 58.5,60 L13.5,60 C11.0147186,60 9,57.9852814 9,55.5 L9,16.5 C9,14.0147186 11.0147186,12 13.5,12 L18.6,12 L18.6,9 C18.6,8.50294373 19.0029437,8.1 19.5,8.1 C19.9970563,8.1 20.4,8.50294373 20.4,9 L20.4,12 Z M10.8,26.4 L61.2,26.4 L61.2,24.6 L10.8,24.6 L10.8,26.4 Z M21,34.8 L30,34.8 C30.6627417,34.8 31.2,35.3372583 31.2,36 L31.2,45 C31.2,45.6627417 30.6627417,46.2 30,46.2 L21,46.2 C20.3372583,46.2 19.8,45.6627417 19.8,45 L19.8,36 C19.8,35.3372583 20.3372583,34.8 21,34.8 Z M21,33 C19.3431458,33 18,34.3431458 18,36 L18,45 C18,46.6568542 19.3431458,48 21,48 L30,48 C31.6568542,48 33,46.6568542 33,45 L33,36 C33,34.3431458 31.6568542,33 30,33 L21,33 Z" id="path-1"></path>
    </defs>
    <g id="icon-time-off-grey-72px" stroke="none" stroke-width="1" fill="none" fill-rule="evenodd">
        <mask id="mask-2" fill="white">
            <use xlink:href="#path-1"></use>
        </mask>
        <use id="time-off" fill="#9C9FA6" fill-rule="nonzero" xlink:href="#path-1"></use>
    </g>
</svg>