<svg width="72px" height="72px" viewBox="0 0 72 72" version="1.1" xmlns="http://www.w3.org/2000/svg" xmlns:xlink="http://www.w3.org/1999/xlink">
    <title>icon-employee-grey-72px</title>
    <defs>
        <path d="M35.4586187,37.8 C42.7487774,37.8 48.6586187,31.8901587 48.6586187,24.6 C48.6586187,17.3098413 42.7487774,11.4 35.4586187,11.4 C28.16846,11.4 22.2586187,17.3098413 22.2586187,24.6 C22.2586187,31.8901587 28.16846,37.8 35.4586187,37.8 Z M18.0586187,61.8 L18.0586187,56.1 C18.0586187,55.6029437 18.4615625,55.2 18.9586187,55.2 C19.455675,55.2 19.8586187,55.6029437 19.8586187,56.1 L19.8586187,61.8 L51.0586187,61.8 L51.0586187,56.1 C51.0586187,55.6029437 51.4615625,55.2 51.9586187,55.2 C52.455675,55.2 52.8586187,55.6029437 52.8586187,56.1 L52.8586187,61.8 L61.9172375,61.8 C61.9833345,61.8 62.0493185,61.794539 62.1145163,61.7836727 C62.7682406,61.6747186 63.2098642,61.0564456 63.1009102,60.4027212 L61.5114818,50.8661509 C61.0841196,48.3019779 59.3077332,46.1672726 56.8639043,45.2810864 C53.2808075,43.9818066 49.6998813,43.0092819 46.1203422,42.3627218 C43.5299535,45.5139018 39.6522187,47.4 35.4586187,47.4 C31.2650188,47.4 27.387284,45.5139018 24.7968953,42.3627218 C21.2173644,43.0092804 17.6364466,43.9818021 14.0533581,45.2810773 C11.6095095,46.1672492 9.83311438,48.3019568 9.40575005,50.8661428 L7.81632729,60.4027212 C7.80546101,60.4679189 7.8,60.533903 7.8,60.6 C7.8,61.2627417 8.3372583,61.8 9,61.8 L18.0586187,61.8 Z M35.4586187,39.6 C27.1743475,39.6 20.4586187,32.8842712 20.4586187,24.6 C20.4586187,16.3157288 27.1743475,9.6 35.4586187,9.6 C43.74289,9.6 50.4586187,16.3157288 50.4586187,24.6 C50.4586187,32.8842712 43.74289,39.6 35.4586187,39.6 Z M35.4586187,45.6 C39.5599102,45.6 43.1806512,43.5425192 45.3449788,40.4034205 C49.3909849,41.0612643 53.435163,42.1230918 57.4775131,43.5889031 C60.532303,44.6966373 62.7527873,47.3650115 63.2869908,50.5702327 L64.8764192,60.106803 C65.1488044,61.741114 64.0447454,63.2867966 62.4104344,63.5591818 C62.2474402,63.5863475 62.0824801,63.6 61.9172375,63.6 L9,63.6 C7.34314575,63.6 6,62.2568542 6,60.6 C6,60.4347574 6.01365252,60.2697973 6.04081823,60.106803 L7.63024078,50.5702259 C8.16444635,47.3649925 10.3849398,44.6966084 13.43975,43.5888938 C17.4820915,42.1230874 21.5262611,41.0612629 25.5722587,40.4034205 C27.7365863,43.5425192 31.3573273,45.6 35.4586187,45.6 Z" id="path-1"></path>
    </defs>
    <g id="icon-employee-grey-72px" stroke="none" stroke-width="1" fill="none" fill-rule="evenodd">
        <mask id="mask-2" fill="white">
            <use xlink:href="#path-1"></use>
        </mask>
        <use id="employee" fill="#9C9FA6" fill-rule="nonzero" xlink:href="#path-1"></use>
    </g>
</svg>