<svg width="36px" height="36px" viewBox="0 0 36 36" version="1.1" xmlns="http://www.w3.org/2000/svg" xmlns:xlink="http://www.w3.org/1999/xlink">
    <title>icon-notifications-grey-36px</title>
    <defs>
        <path d="M25.4460904,17.5180973 L25.4877503,14.5950906 C25.4883824,14.5418015 25.4883824,14.5418015 25.4885088,14.4885088 C25.4885088,11.2299149 23.3879818,8.37484566 20.3417796,7.37301311 C19.8627195,7.16102332 19.5506801,6.86138984 19.4056612,6.47411267 C19.1881329,5.89319692 18.6310327,5.5 18,5.5 C17.3689779,5.5 16.8118851,5.89318364 16.594349,6.47408541 C16.4493249,6.86135326 16.1372058,7.16100484 15.6579917,7.37304015 C12.5736369,8.38682242 10.4635721,11.2991691 10.5107528,14.5971328 L10.5525809,17.5180169 C10.5900171,20.1348353 9.96112756,22.7079643 8.73823478,25 L27.2612564,25 C26.03802,22.7081023 25.4088413,20.1349846 25.4460904,17.5180973 Z M16.5,28 C16.5,28.8284271 17.1715729,29.5 18,29.5 C18.8284271,29.5 19.5,28.8284271 19.5,28 L21,28 C21,29.6568542 19.6568542,31 18,31 C16.3431458,31 15,29.6568542 15,28 L16.5,28 Z M26.9885088,14.4885088 C26.9885088,14.531154 26.9882053,14.5737987 26.9875983,14.6164396 L26.9459381,17.5394737 C26.904644,20.4405304 27.7706196,23.2820243 29.4228743,25.666954 L30,26.5 L6,26.5 L6.5766706,25.6673419 C8.22857711,23.2821444 9.09423714,20.4405493 9.05273438,17.5394737 L9.01090656,14.6186112 C8.95327717,10.5902721 11.5542946,7.14291735 15.1896153,5.94804067 C15.6157627,4.81006969 16.7132804,4 18,4 C19.2867403,4 20.3842727,4.81009575 20.8104053,5.9480956 C24.3982145,7.1280514 26.9885088,10.5057823 26.9885088,14.4885088 Z" id="path-1"></path>
    </defs>
    <g id="icon-notifications-grey-36px" stroke="none" stroke-width="1" fill="none" fill-rule="evenodd">
        <mask id="mask-2" fill="white">
            <use xlink:href="#path-1"></use>
        </mask>
        <use id="notifications" fill="#9C9FA6" fill-rule="nonzero" xlink:href="#path-1"></use>
    </g>
</svg>