<svg width="36px" height="36px" viewBox="0 0 36 36" version="1.1" xmlns="http://www.w3.org/2000/svg" xmlns:xlink="http://www.w3.org/1999/xlink">
    <title>icon-time-off-grey-36px</title>
    <defs>
        <path d="M7.25,8.75 C6.83578644,8.75 6.5,9.08578644 6.5,9.5 L6.5,29 C6.5,29.4142136 6.83578644,29.75 7.25,29.75 L29.75,29.75 C30.1642136,29.75 30.5,29.4142136 30.5,29 L30.5,9.5 C30.5,9.08578644 30.1642136,8.75 29.75,8.75 L7.25,8.75 Z M27.5,7.25 L29.75,7.25 C30.9926407,7.25 32,8.25735931 32,9.5 L32,29 C32,30.2426407 30.9926407,31.25 29.75,31.25 L7.25,31.25 C6.00735931,31.25 5,30.2426407 5,29 L5,9.5 C5,8.25735931 6.00735931,7.25 7.25,7.25 L9.5,7.25 L9.5,5.75 C9.5,5.33578644 9.83578644,5 10.25,5 C10.6642136,5 11,5.33578644 11,5.75 L11,7.25 L26,7.25 L26,5.75 C26,5.33578644 26.3357864,5 26.75,5 C27.1642136,5 27.5,5.33578644 27.5,5.75 L27.5,7.25 Z M11,19.25 L15.5,19.25 L15.5,23.75 L11,23.75 L11,19.25 Z M11,17.75 C10.1715729,17.75 9.5,18.4215729 9.5,19.25 L9.5,23.75 C9.5,24.5784271 10.1715729,25.25 11,25.25 L15.5,25.25 C16.3284271,25.25 17,24.5784271 17,23.75 L17,19.25 C17,18.4215729 16.3284271,17.75 15.5,17.75 L11,17.75 Z M6.5,14.75 L30.5,14.75 L30.5,13.25 L6.5,13.25 L6.5,14.75 Z" id="path-1"></path>
    </defs>
    <g id="icon-time-off-grey-36px" stroke="none" stroke-width="1" fill="none" fill-rule="evenodd">
        <mask id="mask-2" fill="white">
            <use xlink:href="#path-1"></use>
        </mask>
        <use id="time-off" fill="#9C9FA6" fill-rule="nonzero" xlink:href="#path-1"></use>
    </g>
</svg>