<svg width="36px" height="36px" viewBox="0 0 36 36" version="1.1" xmlns="http://www.w3.org/2000/svg" xmlns:xlink="http://www.w3.org/1999/xlink">
    <title>icon-settings-grey-36px</title>
    <defs>
        <path d="M7.39339828,9.51471863 L9.54453713,11.6658575 L8.95285133,12.6671847 C8.45421989,13.5110333 8.07595292,14.4210442 7.83070796,15.3738877 L7.54086668,16.5 L4.5,16.5 L4.5,19.5 L7.54086668,19.5 L7.83070796,20.6261123 C8.07595292,21.5789558 8.45421989,22.4889667 8.95285133,23.3328153 L9.54453713,24.3341425 L7.39339828,26.4852814 L9.51471863,28.6066017 L11.6658575,26.4554629 L12.6671847,27.0471487 C13.5110333,27.5457801 14.4210442,27.9240471 15.3738877,28.169292 L16.5,28.4591333 L16.5,31.5 L19.5,31.5 L19.5,28.4591333 L20.6261123,28.169292 C21.5789558,27.9240471 22.4889667,27.5457801 23.3328153,27.0471487 L24.3341425,26.4554629 L26.4852814,28.6066017 L28.6066017,26.4852814 L26.4554629,24.3341425 L27.0471487,23.3328153 C27.5457801,22.4889667 27.9240471,21.5789558 28.169292,20.6261123 L28.4591333,19.5 L31.5,19.5 L31.5,16.5 L28.4591333,16.5 L28.169292,15.3738877 C27.9240471,14.4210442 27.5457801,13.5110333 27.0471487,12.6671847 L26.4554629,11.6658575 L28.6066017,9.51471863 L26.4852814,7.39339828 L24.3341425,9.54453713 L23.3328153,8.95285133 C22.4889667,8.45421989 21.5789558,8.07595292 20.6261123,7.83070796 L19.5,7.54086668 L19.5,4.5 L16.5,4.5 L16.5,7.54086668 L15.3738877,7.83070796 C14.4210442,8.07595292 13.5110333,8.45421989 12.6671847,8.95285133 L11.6658575,9.54453713 L9.51471863,7.39339828 L7.39339828,9.51471863 Z M7.66145727,11.904098 L6.33273811,10.5753788 C5.74695167,9.98959236 5.74695167,9.03984489 6.33273811,8.45405845 L8.45405845,6.33273811 C9.03984489,5.74695167 9.98959236,5.74695167 10.5753788,6.33273811 L11.904098,7.66145727 C12.8590332,7.09718458 13.898937,6.66144648 15,6.37805246 L15,4.5 C15,3.67157288 15.6715729,3 16.5,3 L19.5,3 C20.3284271,3 21,3.67157288 21,4.5 L21,6.37805246 C22.101063,6.66144648 23.1409668,7.09718458 24.095902,7.66145727 L25.4246212,6.33273811 C26.0104076,5.74695167 26.9601551,5.74695167 27.5459415,6.33273811 L29.6672619,8.45405845 C30.2530483,9.03984489 30.2530483,9.98959236 29.6672619,10.5753788 L28.3385427,11.904098 C28.9028154,12.8590332 29.3385535,13.898937 29.6219475,15 L31.5,15 C32.3284271,15 33,15.6715729 33,16.5 L33,19.5 C33,20.3284271 32.3284271,21 31.5,21 L29.6219475,21 C29.3385535,22.101063 28.9028154,23.1409668 28.3385427,24.095902 L29.6672619,25.4246212 C30.2530483,26.0104076 30.2530483,26.9601551 29.6672619,27.5459415 L27.5459415,29.6672619 C26.9601551,30.2530483 26.0104076,30.2530483 25.4246212,29.6672619 L24.095902,28.3385427 C23.1409668,28.9028154 22.101063,29.3385535 21,29.6219475 L21,31.5 C21,32.3284271 20.3284271,33 19.5,33 L16.5,33 C15.6715729,33 15,32.3284271 15,31.5 L15,29.6219475 C13.898937,29.3385535 12.8590332,28.9028154 11.904098,28.3385427 L10.5753788,29.6672619 C9.98959236,30.2530483 9.03984489,30.2530483 8.45405845,29.6672619 L6.33273811,27.5459415 C5.74695167,26.9601551 5.74695167,26.0104076 6.33273811,25.4246212 L7.66145727,24.095902 C7.09718458,23.1409668 6.66144648,22.101063 6.37805246,21 L4.5,21 C3.67157288,21 3,20.3284271 3,19.5 L3,16.5 C3,15.6715729 3.67157288,15 4.5,15 L6.37805246,15 C6.66144648,13.898937 7.09718458,12.8590332 7.66145727,11.904098 Z M18,24.75 C21.7279221,24.75 24.75,21.7279221 24.75,18 C24.75,14.2720779 21.7279221,11.25 18,11.25 C14.2720779,11.25 11.25,14.2720779 11.25,18 C11.25,21.7279221 14.2720779,24.75 18,24.75 Z M18,23.25 C15.1005051,23.25 12.75,20.8994949 12.75,18 C12.75,15.1005051 15.1005051,12.75 18,12.75 C20.8994949,12.75 23.25,15.1005051 23.25,18 C23.25,20.8994949 20.8994949,23.25 18,23.25 Z" id="path-1"></path>
    </defs>
    <g id="icon-settings-grey-36px" stroke="none" stroke-width="1" fill="none" fill-rule="evenodd">
        <mask id="mask-2" fill="white">
            <use xlink:href="#path-1"></use>
        </mask>
        <use id="settings" fill="#9C9FA6" fill-rule="nonzero" xlink:href="#path-1"></use>
    </g>
</svg>