<svg width="36px" height="36px" viewBox="0 0 36 36" version="1.1" xmlns="http://www.w3.org/2000/svg" xmlns:xlink="http://www.w3.org/1999/xlink">
    <title>icon-search-blue-36px</title>
    <defs>
        <path d="M16.5,22.5 C19.8137085,22.5 22.5,19.8137085 22.5,16.5 C22.5,13.1862915 19.8137085,10.5 16.5,10.5 C13.1862915,10.5 10.5,13.1862915 10.5,16.5 C10.5,19.8137085 13.1862915,22.5 16.5,22.5 Z M22.307209,21.2465488 L26.9303301,25.8696699 C27.2232233,26.1625631 27.2232233,26.6374369 26.9303301,26.9303301 C26.6374369,27.2232233 26.1625631,27.2232233 25.8696699,26.9303301 L21.2465488,22.307209 C19.9536459,23.365226 18.3009526,24 16.5,24 C12.3578644,24 9,20.6421356 9,16.5 C9,12.3578644 12.3578644,9 16.5,9 C20.6421356,9 24,12.3578644 24,16.5 C24,18.3009526 23.365226,19.9536459 22.307209,21.2465488 Z" id="path-1"></path>
    </defs>
    <g id="icon-search-blue-36px" stroke="none" stroke-width="1" fill="none" fill-rule="evenodd">
        <mask id="mask-2" fill="white">
            <use xlink:href="#path-1"></use>
        </mask>
        <use id="search" fill="#488EFF" fill-rule="nonzero" xlink:href="#path-1"></use>
    </g>
</svg>