<svg xmlns="http://www.w3.org/2000/svg" width="37" height="40" viewBox="0 0 37 40">
    <g fill="none" fill-rule="evenodd">
        <path fill="#488EFF" d="M15.602912,0.592811336 C16.9793858,-0.198301939 19.2135206,-0.196905309 20.5875643,0.592811336 L33.6981502,8.12797783 C35.0746239,8.91909111 36.1904762,10.8458564 36.1904762,12.4252897 L36.1904762,27.4956227 C36.1904762,29.0778493 35.0721939,31.003218 33.6981502,31.7929346 L20.5875643,39.3281012 C19.2110906,40.1192144 16.9769557,40.1178177 15.602912,39.3281012 L2.49232612,31.7929346 C1.11585241,31.0018213 9.40199234e-15,29.075056 8.51009875e-15,27.4956227 L0,12.4252897 C-8.93470912e-16,10.8430632 1.11828244,8.91769448 2.49232612,8.12797783 L15.602912,0.592811336 Z" />
        <path
                fill="#FFF"
                d="M13.9552795,15.2573913 L12.0041408,29.626087 C11.9097308,30.2834783 11.626501,30.5652174 10.9656315,30.5652174 L7.44099379,30.5652174 C6.78012422,30.5652174 6.55983437,30.2834783 6.65424431,29.626087 L8.60538302,15.2573913 C8.69979296,14.6 9.01449275,14.3182609 9.67536232,14.3182609 L13.2,14.3182609 C13.8293996,14.3182609 14.0496894,14.6 13.9552795,15.2573913 Z M9.07743271,11.72 L9.5494824,8.40173913 C9.64389234,7.74434783 9.92712215,7.4626087 10.5879917,7.4626087 L14.1126294,7.4626087 C14.773499,7.4626087 14.9937888,7.74434783 14.8993789,8.40173913 L14.4587992,11.72 C14.3643892,12.3773913 14.0496894,12.6591304 13.4202899,12.6591304 L9.86418219,12.6591304 C9.23478261,12.6591304 8.98302277,12.3773913 9.07743271,11.72 Z M15.5043018,29.626087 L17.2980906,16.7913043 C17.3925006,16.133913 17.6757304,15.7269565 18.3366,15.4765217 C19.2492294,15.1321739 22.5850472,14.0052174 25.826455,14.0052174 C29.1308029,14.0052174 32.0889809,14.9130435 31.4281113,19.7652174 L30.0749022,29.626087 C29.9804923,30.2834783 29.6972625,30.5652174 29.0363929,30.5652174 L25.6376352,30.5652174 C24.9767656,30.5652174 24.7250058,30.2834783 24.8194157,29.626087 L26.1411548,20.1408696 C26.3929147,18.3565217 25.6691051,17.8556522 24.6620658,17.8556522 C23.9382563,17.8556522 23.0256269,18.0121739 22.3332873,18.3252174 L20.7597884,29.626087 C20.6653784,30.2834783 20.3821486,30.5652174 19.721279,30.5652174 L16.3225213,30.5652174 C15.6616517,30.5652174 15.4413619,30.2834783 15.5043018,29.626087 Z"
        />
    </g>
</svg>