<svg width="36px" height="36px" viewBox="0 0 36 36" version="1.1" xmlns="http://www.w3.org/2000/svg" xmlns:xlink="http://www.w3.org/1999/xlink">
    <title>icon-benefit-blue-36px</title>
    <defs>
        <path d="M29.3333913,19.5014145 C32.295149,16.7312103 32.5932686,12.1358789 30.0142614,9.0062205 C29.9733171,8.95653402 29.9316775,8.90742461 29.8893548,8.85890678 C27.3910937,5.99494915 23.0441566,5.69849355 20.1801989,8.19675465 L18.1271035,9.98769191 L16.0691844,8.19254692 C16.0192072,8.14895119 15.968601,8.10608169 15.9173819,8.06395191 C12.9881384,5.65453196 8.66029662,6.07593217 6.25087667,9.00517563 C3.67506487,12.1367094 3.97368381,16.73028 6.93324816,19.5019764 C12.1812259,24.4167901 15.9131941,27.9014156 18.1272329,29.9540813 C20.3418293,27.9018185 24.0769228,24.4178717 29.3333913,19.5014145 Z M18.8771035,16.2471935 L18.8771035,12.4971935 L17.3771035,12.4971935 L17.3771035,16.2471935 L13.6271035,16.2471935 L13.6271035,17.7471935 L17.3771035,17.7471935 L17.3771035,21.4971935 L18.8771035,21.4971935 L18.8771035,17.7471935 L22.6271035,17.7471935 L22.6271035,16.2471935 L18.8771035,16.2471935 Z M18.1271035,7.99719355 L19.1941648,7.06638447 C22.6824087,4.02355176 27.9768923,4.38462884 31.019725,7.87287268 C31.0712731,7.93196645 31.1219894,7.99178074 31.1718588,8.05229789 C34.2544737,11.7930908 33.8981396,17.2857614 30.3580338,20.5969088 C24.1874075,26.3683921 20.1104397,30.1684966 18.1271035,31.9971935 C16.1437604,30.1684903 12.070696,26.3683657 5.90791014,20.5968197 C2.37099207,17.284419 2.01411509,11.7947346 5.09241906,8.05229789 C8.02809886,4.48325597 13.3012177,3.96981451 16.8702596,6.90549431 C16.9326659,6.95682597 16.9943253,7.00905893 17.0552185,7.06217673 L18.1271035,7.99719355 Z" id="path-1"></path>
    </defs>
    <g id="icon-benefit-blue-36px" stroke="none" stroke-width="1" fill="none" fill-rule="evenodd">
        <mask id="mask-2" fill="white">
            <use xlink:href="#path-1"></use>
        </mask>
        <use id="benefit" fill="#488EFF" fill-rule="nonzero" xlink:href="#path-1"></use>
    </g>
</svg>