<svg width="36px" height="36px" viewBox="0 0 36 36" version="1.1" xmlns="http://www.w3.org/2000/svg" xmlns:xlink="http://www.w3.org/1999/xlink">
    <title>icon-dashboard-grey-36px</title>
    <defs>
        <path d="M9.25003448,14.9002924 L9.25003448,28.7001462 C9.25003448,29.1143597 9.58582091,29.4501462 10.0000345,29.4501462 L13.7500345,29.4501462 L13.7500345,18.9501462 L22.7500345,18.9501462 L22.7500345,29.4501462 L26.5000345,29.4501462 C26.914248,29.4501462 27.2500345,29.1143597 27.2500345,28.7001462 L27.2500345,14.9002924 L18.2500345,7.90029238 L9.25003448,14.9002924 Z M7.75003448,16.066959 L5.21048994,18.0421604 C4.88352954,18.2964629 4.41232284,18.237562 4.15802031,17.9106016 C3.90371779,17.5836413 3.96261862,17.1124346 4.28957902,16.858132 L18.2500345,6 L32.2104899,16.858132 C32.5374503,17.1124346 32.5963512,17.5836413 32.3420486,17.9106016 C32.0877461,18.237562 31.6165394,18.2964629 31.289579,18.0421604 L28.7500345,16.066959 L28.7500345,28.7001462 C28.7500345,29.9427869 27.7426752,30.9501462 26.5000345,30.9501462 L21.2500345,30.9501462 L21.2500345,20.4501462 L15.2500345,20.4501462 L15.2500345,30.9501462 L10.0000345,30.9501462 C8.75739379,30.9501462 7.75003448,29.9427869 7.75003448,28.7001462 L7.75003448,16.066959 Z" id="path-1"></path>
    </defs>
    <g id="icon-dashboard-grey-36px" stroke="none" stroke-width="1" fill="none" fill-rule="evenodd">
        <mask id="mask-2" fill="white">
            <use xlink:href="#path-1"></use>
        </mask>
        <use id="dashboard" fill="#9C9FA6" fill-rule="nonzero" xlink:href="#path-1"></use>
    </g>
</svg>