<svg width="36px" height="36px" viewBox="0 0 36 36" version="1.1" xmlns="http://www.w3.org/2000/svg" xmlns:xlink="http://www.w3.org/1999/xlink">
    <title>icon-document-grey-36px</title>
    <defs>
        <path d="M7.25,14.5 C6.83578644,14.5 6.5,14.8357864 6.5,15.25 L6.5,27.25 C6.5,27.6642136 6.83578644,28 7.25,28 L29.75,28 C30.1642136,28 30.5,27.6642136 30.5,27.25 L30.5,15.25 C30.5,14.8357864 30.1642136,14.5 29.75,14.5 L7.25,14.5 Z M7.25,7 L15.6056681,7 C16.4565214,7 17.2345961,7.47995906 17.6164082,8.24033455 L18.5,10 L29.75,10 C30.9926407,10 32,11.0073593 32,12.25 L32,27.25 C32,28.4926407 30.9926407,29.5 29.75,29.5 L7.25,29.5 C6.00735931,29.5 5,28.4926407 5,27.25 L5,9.25 C5,8.00735931 6.00735931,7 7.25,7 Z M7.25,8.5 C6.83578644,8.5 6.5,8.83578644 6.5,9.25 L6.5,13 L30.5,13 C30.5,12.7761424 30.5,12.5261424 30.5,12.25 C30.5,11.8357864 30.1642136,11.5 29.75,11.5 L17.5747179,11.5 L16.2759148,8.91344485 C16.1486441,8.65998635 15.8892859,8.5 15.6056681,8.5 L7.25,8.5 Z" id="path-1"></path>
    </defs>
    <g id="icon-document-grey-36px" stroke="none" stroke-width="1" fill="none" fill-rule="evenodd">
        <mask id="mask-2" fill="white">
            <use xlink:href="#path-1"></use>
        </mask>
        <use id="document" fill="#9C9FA6" fill-rule="nonzero" xlink:href="#path-1"></use>
    </g>
</svg>