<svg width="36px" height="36px" viewBox="0 0 36 36" version="1.1" xmlns="http://www.w3.org/2000/svg" xmlns:xlink="http://www.w3.org/1999/xlink">
    <title>icon-employees-grey-36px</title>
    <defs>
        <path d="M9.2665895,32 L9.2665895,29.75 C9.2665895,29.3357864 9.60237593,29 10.0165895,29 C10.4308031,29 10.7665895,29.3357864 10.7665895,29.75 L10.7665895,32 L19.7665895,32 L19.7665895,29.75 C19.7665895,29.3357864 20.1023759,29 20.5165895,29 C20.9308031,29 21.2665895,29.3357864 21.2665895,29.75 L21.2665895,32 L25.1864969,32 C25.3521823,32 25.4864969,31.8656854 25.4864969,31.7 C25.4864969,31.6855813 25.4854574,31.6711814 25.4833865,31.6569123 L24.9178498,27.7601649 C24.7441575,26.5633636 23.8688609,25.5878791 22.6977981,25.2860131 C21.6311698,25.011057 20.5649678,24.7899547 19.4990473,24.6226132 C18.436954,25.9133355 16.55661,26.6849663 14.5165895,26.6849663 C12.476569,26.6849663 10.596225,25.9133355 9.53413172,24.6226132 C8.4682022,24.7899561 7.40199118,25.0110608 6.33535388,25.2860201 C5.16429759,25.5878967 4.28899932,26.5633876 4.11530794,27.7601825 L3.54979078,31.6569136 C3.52599479,31.8208813 3.63962643,31.9730938 3.80359414,31.9968898 C3.81786289,31.9989606 3.83226236,32 3.84668059,32 L9.2665895,32 Z M28.7665895,24.5 L32.7213896,24.5 C32.8870751,24.5 33.0213896,24.3656854 33.0213896,24.2 C33.0213896,24.1872594 33.020578,24.1745317 33.0189597,24.1618943 L32.5109858,20.1950926 C32.3579034,18.9996617 31.5043135,18.0118924 30.3436995,17.6871296 C29.572301,17.4712714 28.801415,17.2920673 28.0309289,17.1494348 C27.0577609,18.4126759 25.3603554,19.1849663 23.5165895,19.1849663 C23.092167,19.1849663 22.6755001,19.1440434 22.2736373,19.0656294 C22.4430551,18.598987 22.5715643,18.1127215 22.6548301,17.6111679 C22.9319102,17.6594606 23.2203498,17.6849663 23.5165895,17.6849663 C25.3023421,17.6849663 26.8046582,16.7581536 27.2438479,15.5 C28.4122761,15.6683488 29.5802977,15.9158884 30.7479128,16.2426187 C32.4888275,16.7297612 33.7692129,18.2114201 33.9988362,20.004564 L34.5501067,24.3094714 C34.6553327,25.1311885 34.074502,25.8826244 33.2527849,25.9878504 C33.1895978,25.9959419 33.1259594,26 33.0622563,26 L27.2665895,26 L27.2665895,24.5 L27.2665895,22.25 C27.2665895,21.8357864 27.6023759,21.5 28.0165895,21.5 C28.4308031,21.5 28.7665895,21.8357864 28.7665895,22.25 L28.7665895,24.5 Z M18.3674888,8.95202668 C17.8650279,8.68634514 17.3318249,8.47103478 16.7746039,8.31281989 C16.7692827,8.20921921 16.7665895,8.10492412 16.7665895,8 C16.7665895,4.6862915 19.452881,2 22.7665895,2 C26.080298,2 28.7665895,4.6862915 28.7665895,8 C28.7665895,11.3137085 26.080298,14 22.7665895,14 C22.6616654,14 22.5573703,13.9973068 22.4537696,13.9919856 C22.2955547,13.4347646 22.0802444,12.9015616 21.8145628,12.3991007 C22.1214396,12.4651984 22.4399504,12.5 22.7665895,12.5 C25.2518709,12.5 27.2665895,10.4852814 27.2665895,8 C27.2665895,5.51471863 25.2518709,3.5 22.7665895,3.5 C20.2813081,3.5 18.2665895,5.51471863 18.2665895,8 C18.2665895,8.32663914 18.3013911,8.64514991 18.3674888,8.95202668 Z M14.5165895,23 C10.7886674,23 7.7665895,19.9779221 7.7665895,16.25 C7.7665895,12.5220779 10.7886674,9.5 14.5165895,9.5 C18.2445116,9.5 21.2665895,12.5220779 21.2665895,16.25 C21.2665895,19.9779221 18.2445116,23 14.5165895,23 Z M14.5165895,21.5 C17.4160844,21.5 19.7665895,19.1494949 19.7665895,16.25 C19.7665895,13.3505051 17.4160844,11 14.5165895,11 C11.6170946,11 9.2665895,13.3505051 9.2665895,16.25 C9.2665895,19.1494949 11.6170946,21.5 14.5165895,21.5 Z M14.5165895,25.1849663 C16.5404425,25.1849663 18.2430674,24.2581536 18.7408157,23 C20.1851681,23.1836215 21.6289724,23.461454 23.0722285,23.8334974 C24.8288142,24.2862942 26.1417599,25.7495277 26.4022979,27.5447263 L27.0176271,31.7845614 C27.1366106,32.6043994 26.5684557,33.3654646 25.7486176,33.4844481 C25.6772718,33.4948026 25.6052723,33.5 25.533179,33.5 L3.5,33.5 C2.67157288,33.5 2,32.8284271 2,32 C2,31.9279067 2.00519743,31.8559072 2.01555189,31.7845614 L2.6308589,27.5447503 C2.89139683,25.7495521 4.20434154,24.2863186 5.96092235,23.8335047 C7.40418785,23.4614576 8.8480015,23.1836227 10.2923633,23 C10.7901116,24.2581536 12.4927365,25.1849663 14.5165895,25.1849663 Z" id="path-1"></path>
    </defs>
    <g id="icon-employees-grey-36px" stroke="none" stroke-width="1" fill="none" fill-rule="evenodd">
        <mask id="mask-2" fill="white">
            <use xlink:href="#path-1"></use>
        </mask>
        <use id="employees" fill="#9C9FA6" fill-rule="nonzero" xlink:href="#path-1"></use>
    </g>
</svg>