<svg width="36px" height="36px" viewBox="0 0 36 36" version="1.1" xmlns="http://www.w3.org/2000/svg" xmlns:xlink="http://www.w3.org/1999/xlink">
    <title>icon-employee-blue-36px</title>
    <defs>
        <path d="M17.7293094,17.5 C21.0430179,17.5 23.7293094,14.8137085 23.7293094,11.5 C23.7293094,8.1862915 21.0430179,5.5 17.7293094,5.5 C14.4156009,5.5 11.7293094,8.1862915 11.7293094,11.5 C11.7293094,14.8137085 14.4156009,17.5 17.7293094,17.5 Z M8.72930937,29.5 L8.72930937,27.25 C8.72930937,26.8357864 9.06509581,26.5 9.47930937,26.5 C9.89352293,26.5 10.2293094,26.8357864 10.2293094,27.25 L10.2293094,29.5 L25.2293094,29.5 L25.2293094,27.25 C25.2293094,26.8357864 25.5650958,26.5 25.9793094,26.5 C26.3935229,26.5 26.7293094,26.8357864 26.7293094,27.25 L26.7293094,29.5 L30.6044806,29.5 C30.770166,29.5 30.9044806,29.3656854 30.9044806,29.2 C30.9044806,29.1834757 30.9031154,29.1669797 30.9003988,29.1506803 L30.1639045,24.7317148 C29.9858369,23.6633092 29.2456749,22.7738475 28.2274159,22.4046043 C26.5794318,21.8070228 24.9334761,21.3504517 23.2890125,21.0343501 C21.8873894,22.5826678 19.8848476,23.5 17.7293094,23.5 C15.5737712,23.5 13.5712294,22.5826678 12.1696063,21.0343501 C10.5251467,21.3504509 8.87919507,21.8070205 7.23121509,22.4045998 C6.21294462,22.7738382 5.47277987,23.6632999 5.29471145,24.7317104 L4.55821966,29.1506805 C4.53098126,29.3141116 4.64138727,29.4686798 4.80481839,29.4959182 C4.82111774,29.4986348 4.83761368,29.5 4.85413787,29.5 L8.72930937,29.5 Z M17.7293094,19 C13.5871737,19 10.2293094,15.6421356 10.2293094,11.5 C10.2293094,7.35786438 13.5871737,4 17.7293094,4 C21.871445,4 25.2293094,7.35786438 25.2293094,11.5 C25.2293094,15.6421356 21.871445,19 17.7293094,19 Z M17.7293094,22 C19.7799551,22 21.5903256,20.9712596 22.6724894,19.4017103 C24.6954924,19.7306322 26.7175815,20.2615459 28.7387565,20.9944515 C30.2661515,21.5483186 31.3763937,22.8825057 31.6434954,24.4851163 L32.4382096,29.2534015 C32.5744022,30.070557 32.0223727,30.8433983 31.2052172,30.9795909 C31.1237201,30.9931737 31.04124,31 30.9586187,31 L4.5,31 C3.67157288,31 3,30.3284271 3,29.5 C3,29.4173787 3.00682626,29.3348987 3.02040911,29.2534015 L3.81512039,24.485113 C4.08222317,22.8824962 5.19246989,21.5483042 6.719875,20.9944469 C8.74104577,20.2615437 10.7631306,19.7306315 12.7861294,19.4017103 C13.8682931,20.9712596 15.6786637,22 17.7293094,22 Z" id="path-1"></path>
    </defs>
    <g id="icon-employee-blue-36px" stroke="none" stroke-width="1" fill="none" fill-rule="evenodd">
        <mask id="mask-2" fill="white">
            <use xlink:href="#path-1"></use>
        </mask>
        <use id="employee" fill="#488EFF" fill-rule="nonzero" xlink:href="#path-1"></use>
    </g>
</svg>